<svg width="113" height="51" viewBox="0 0 113 51" fill="none" xmlns="http://www.w3.org/2000/svg">
<g clip-path="url(#clip0_811_10302)">
<path d="M6.21475 15.7585C9.9306 11.7967 16.4687 11.7505 19.5833 15.2401L16.5887 22.6385C15.1403 26.9762 9.49317 27.5024 8.09783 25.873C8.57972 29.9664 15.5802 31.7842 18.8507 24.4826L23.6403 13.2432H28.0145L22.1182 27.5607C17.8645 37.4211 3.31836 34.3364 3.31836 23.1371C3.31836 20.3513 4.33108 17.7377 6.21475 15.7585ZM15.3283 16.781C12.1259 15.0876 8.42819 17.365 7.89443 20.9022C7.46207 24.3938 12.4348 23.5178 13.5716 20.9022L15.3283 16.781Z" fill="#0D7B8C"/>
<path d="M41.6799 20.6092V32.9908H37.5724V21.6162C37.5724 20.7342 37.3616 19.9309 36.934 19.207C36.5061 18.4829 35.9333 17.9037 35.2159 17.4758C34.492 17.0482 33.6887 16.8374 32.7936 16.8374C31.9244 16.8374 31.1281 17.0482 30.4042 17.4758C29.6803 17.9037 29.1009 18.4829 28.6662 19.207C28.2319 19.9309 28.0145 20.7342 28.0145 21.6162V32.9908H23.9072V13.243H28.0145V15.3367C28.6992 14.5204 29.5416 13.8752 30.5423 13.4012C31.5429 12.9273 32.6223 12.6903 33.7811 12.6903C35.242 12.6903 36.572 13.0458 37.7698 13.7567C38.9678 14.4675 39.9222 15.4219 40.6266 16.6203C41.331 17.8183 41.6799 19.1477 41.6799 20.6092ZM64.725 6.12274V32.9908H60.6178V30.088C59.9726 31.1147 59.1302 31.9441 58.09 32.5631C57.0501 33.1881 55.8322 33.5045 54.4365 33.5045C53.0016 33.5045 51.6591 33.2344 50.4081 32.6945C49.1574 32.1549 48.0519 31.4043 47.1041 30.4499C46.1426 29.4955 45.399 28.396 44.8592 27.1453C44.3196 25.8949 44.0495 24.5518 44.0495 23.1169C44.0495 21.6822 44.3196 20.3391 44.8592 19.0754C45.399 17.8183 46.1426 16.7123 47.1041 15.7579C48.0519 14.8035 49.1574 14.0593 50.4081 13.5197C51.6591 12.9799 53.0016 12.7098 54.4365 12.7098C55.8322 12.7098 57.0501 13.0261 58.09 13.6447C59.1302 14.2703 59.9726 15.0931 60.6178 16.1068V6.12274H64.725ZM54.4761 29.5351C55.6349 29.5351 56.6486 29.2455 57.5172 28.6727C58.3862 28.1068 59.0645 27.3296 59.5448 26.3557C60.0253 25.3812 60.2622 24.3018 60.2622 23.1169C60.2622 21.9191 60.0189 20.833 59.5313 19.8585C59.0444 18.8846 58.3731 18.1079 57.5106 17.5351C56.6486 16.9624 55.6349 16.6796 54.4761 16.6796C53.331 16.6796 52.2907 16.9688 51.3494 17.5482C50.4081 18.1276 49.658 18.9041 49.0981 19.8786C48.5324 20.8527 48.2556 21.9322 48.2556 23.1169C48.2556 24.3149 48.5388 25.3947 49.1182 26.3622C49.6906 27.3367 50.4476 28.1068 51.389 28.6727C52.3303 29.2455 53.3571 29.5351 54.4761 29.5351ZM76.9765 33.5045C75.1596 33.5045 73.5074 33.037 72.0132 32.1021C70.5191 31.1674 69.3278 29.9103 68.4391 28.3367C67.5506 26.7703 67.1027 25.0257 67.1027 23.1169C67.1027 21.6691 67.3593 20.3196 67.8728 19.0559C68.3865 17.7982 69.0908 16.6926 69.999 15.7382C70.8942 14.7838 71.9474 14.0398 73.1454 13.5C74.3432 12.9604 75.6206 12.6903 76.9765 12.6903C78.7929 12.6903 80.4517 13.1578 81.9463 14.0925C83.4406 15.0274 84.6319 16.2845 85.5204 17.8645C86.4027 19.4439 86.8504 21.195 86.8504 23.1169C86.8504 24.5518 86.5934 25.8949 86.0803 27.1453C85.5666 28.396 84.8622 29.4955 83.9607 30.4499C83.0585 31.4043 82.0121 32.1549 80.8207 32.6945C79.6294 33.2344 78.3458 33.5045 76.9765 33.5045ZM76.9765 29.3966C78.069 29.3966 79.05 29.107 79.9186 28.528C80.7876 27.9486 81.4789 27.1851 81.9856 26.2241C82.4926 25.2697 82.7426 24.2361 82.7426 23.1169C82.7426 21.9718 82.4862 20.9185 81.966 19.9574C81.4459 18.9966 80.748 18.2265 79.8794 17.6537C79.0104 17.0807 78.0429 16.7982 76.9765 16.7982C75.8971 16.7982 74.9226 17.0874 74.047 17.6668C73.172 18.246 72.4742 19.0161 71.9736 19.9771C71.4605 20.938 71.2101 21.9848 71.2101 23.1169C71.2101 24.2887 71.4736 25.3487 72.0003 26.2964C72.5268 27.2442 73.2312 28.0015 74.1063 28.5541C74.9819 29.114 75.9363 29.3966 76.9765 29.3966Z" fill="#0D7B8C"/>
<path d="M105.803 17.3278L94.8073 28.8769H105.803V32.9901H88.9141V28.8769L99.9095 17.3278H88.9141V13.2145H105.803V17.3278Z" fill="#0D7B8C"/>
<path d="M40.4453 40.5447C40.6394 40.205 40.9236 39.9276 41.298 39.7127C41.6724 39.4978 42.0987 39.3904 42.5771 39.3904C43.0901 39.3904 43.5511 39.5117 43.9601 39.7543C44.3692 39.997 44.6915 40.3401 44.9273 40.7838C45.163 41.2206 45.2808 41.7301 45.2808 42.3125C45.2808 42.8879 45.163 43.4009 44.9273 43.8515C44.6915 44.3022 44.3657 44.6523 43.9497 44.9018C43.5407 45.1514 43.0832 45.2762 42.5771 45.2762C42.0849 45.2762 41.6516 45.1688 41.2772 44.9538C40.9098 44.7389 40.6325 44.4651 40.4453 44.1323V45.1826H39.499V37.4873H40.4453V40.5447ZM44.3137 42.3125C44.3137 41.8827 44.2271 41.5083 44.0537 41.1894C43.8804 40.8705 43.6447 40.6278 43.3466 40.4615C43.0554 40.2951 42.7331 40.2119 42.3795 40.2119C42.0329 40.2119 41.7105 40.2985 41.4124 40.4719C41.1212 40.6382 40.8855 40.8844 40.7053 41.2102C40.5319 41.5291 40.4453 41.9 40.4453 42.3229C40.4453 42.7527 40.5319 43.1305 40.7053 43.4564C40.8855 43.7753 41.1212 44.0214 41.4124 44.1947C41.7105 44.3611 42.0329 44.4443 42.3795 44.4443C42.7331 44.4443 43.0554 44.3611 43.3466 44.1947C43.6447 44.0214 43.8804 43.7753 44.0537 43.4564C44.2271 43.1305 44.3137 42.7492 44.3137 42.3125ZM51.4348 39.484L48.0031 47.8656H47.0256L48.1487 45.1202L45.8505 39.484H46.9008L48.6894 44.1011L50.4573 39.484H51.4348ZM54.8049 41.5534C54.8049 40.8462 54.9643 40.2119 55.2832 39.6503C55.6021 39.0819 56.0354 38.6382 56.5831 38.3193C57.1377 38.0004 57.7512 37.8409 58.4237 37.8409C59.214 37.8409 59.9038 38.0316 60.4931 38.4129C61.0824 38.7942 61.5122 39.3349 61.7826 40.0351H60.6491C60.4481 39.5983 60.1569 39.2621 59.7756 39.0264C59.4012 38.7907 58.9506 38.6728 58.4237 38.6728C57.9176 38.6728 57.4635 38.7907 57.0614 39.0264C56.6593 39.2621 56.3439 39.5983 56.1151 40.0351C55.8864 40.4649 55.772 40.971 55.772 41.5534C55.772 42.1288 55.8864 42.6349 56.1151 43.0716C56.3439 43.5014 56.6593 43.8342 57.0614 44.0699C57.4635 44.3056 57.9176 44.4235 58.4237 44.4235C58.9506 44.4235 59.4012 44.3091 59.7756 44.0803C60.1569 43.8446 60.4481 43.5084 60.6491 43.0716H61.7826C61.5122 43.7649 61.0824 44.3022 60.4931 44.6835C59.9038 45.0578 59.214 45.245 58.4237 45.245C57.7512 45.245 57.1377 45.089 56.5831 44.7771C56.0354 44.4582 55.6021 44.0179 55.2832 43.4564C54.9643 42.8948 54.8049 42.2605 54.8049 41.5534ZM68.3908 42.1149C68.3908 42.2952 68.3804 42.4858 68.3596 42.6869H63.8048C63.8395 43.2484 64.0301 43.6886 64.3767 44.0075C64.7303 44.3195 65.1567 44.4755 65.6558 44.4755C66.0649 44.4755 66.4046 44.3819 66.6749 44.1947C66.9522 44.0006 67.1463 43.7441 67.2573 43.4252H68.2764C68.1239 43.9729 67.8188 44.42 67.3613 44.7667C66.9037 45.1064 66.3352 45.2762 65.6558 45.2762C65.1151 45.2762 64.6298 45.1549 64.2 44.9122C63.7771 44.6696 63.4443 44.3264 63.2017 43.8827C62.959 43.4321 62.8377 42.9122 62.8377 42.3229C62.8377 41.7336 62.9555 41.2171 63.1913 40.7734C63.427 40.3297 63.7563 39.99 64.1792 39.7543C64.609 39.5117 65.1012 39.3904 65.6558 39.3904C66.1966 39.3904 66.6749 39.5082 67.0909 39.7439C67.5068 39.9796 67.8258 40.3055 68.0476 40.7214C68.2764 41.1305 68.3908 41.595 68.3908 42.1149ZM67.4133 41.9173C67.4133 41.5568 67.3335 41.2483 67.1741 40.9918C67.0146 40.7284 66.7962 40.5308 66.5189 40.3991C66.2486 40.2604 65.947 40.1911 65.6142 40.1911C65.1359 40.1911 64.7268 40.3436 64.3871 40.6486C64.0544 40.9537 63.8637 41.3766 63.8152 41.9173H67.4133ZM70.5862 37.4873V45.1826H69.6399V37.4873H70.5862ZM77.3985 42.1149C77.3985 42.2952 77.3881 42.4858 77.3673 42.6869H72.8125C72.8472 43.2484 73.0379 43.6886 73.3845 44.0075C73.7381 44.3195 74.1644 44.4755 74.6636 44.4755C75.0726 44.4755 75.4123 44.3819 75.6827 44.1947C75.96 44.0006 76.1541 43.7441 76.265 43.4252H77.2841C77.1316 43.9729 76.8266 44.42 76.369 44.7667C75.9114 45.1064 75.343 45.2762 74.6636 45.2762C74.1228 45.2762 73.6375 45.1549 73.2077 44.9122C72.7848 44.6696 72.452 44.3264 72.2094 43.8827C71.9668 43.4321 71.8454 42.9122 71.8454 42.3229C71.8454 41.7336 71.9633 41.2171 72.199 40.7734C72.4347 40.3297 72.764 39.99 73.1869 39.7543C73.6167 39.5117 74.109 39.3904 74.6636 39.3904C75.2043 39.3904 75.6827 39.5082 76.0986 39.7439C76.5146 39.9796 76.8335 40.3055 77.0553 40.7214C77.2841 41.1305 77.3985 41.595 77.3985 42.1149ZM76.421 41.9173C76.421 41.5568 76.3413 41.2483 76.1818 40.9918C76.0224 40.7284 75.804 40.5308 75.5267 40.3991C75.2563 40.2604 74.9547 40.1911 74.622 40.1911C74.1436 40.1911 73.7346 40.3436 73.3949 40.6486C73.0621 40.9537 72.8715 41.3766 72.8229 41.9173H76.421ZM79.5939 40.4095C79.7603 40.0836 79.996 39.8306 80.301 39.6503C80.613 39.4701 80.9909 39.38 81.4345 39.38V40.3575H81.185C80.1243 40.3575 79.5939 40.9329 79.5939 42.0837V45.1826H78.6476V39.484H79.5939V40.4095ZM84.8771 39.3904C85.3693 39.3904 85.7992 39.4978 86.1666 39.7127C86.5409 39.9276 86.8183 40.198 86.9985 40.5239V39.484H87.9552V45.3074C87.9552 45.8274 87.8443 46.2884 87.6224 46.6905C87.4006 47.0995 87.0817 47.4184 86.6657 47.6472C86.2567 47.876 85.7784 47.9904 85.2307 47.9904C84.4819 47.9904 83.858 47.8136 83.3588 47.46C82.8597 47.1064 82.5651 46.6246 82.4749 46.0145H83.4108C83.5148 46.3612 83.7297 46.6385 84.0556 46.8465C84.3814 47.0614 84.7731 47.1688 85.2307 47.1688C85.7506 47.1688 86.1735 47.0059 86.4994 46.6801C86.8321 46.3542 86.9985 45.8967 86.9985 45.3074V44.1115C86.8113 44.4443 86.534 44.7216 86.1666 44.9434C85.7992 45.1653 85.3693 45.2762 84.8771 45.2762C84.371 45.2762 83.91 45.1514 83.494 44.9018C83.085 44.6523 82.7626 44.3022 82.5269 43.8515C82.2912 43.4009 82.1734 42.8879 82.1734 42.3125C82.1734 41.7301 82.2912 41.2206 82.5269 40.7838C82.7626 40.3401 83.085 39.997 83.494 39.7543C83.91 39.5117 84.371 39.3904 84.8771 39.3904ZM86.9985 42.3229C86.9985 41.8931 86.9118 41.5187 86.7385 41.1998C86.5652 40.8809 86.3295 40.6382 86.0314 40.4719C85.7402 40.2985 85.4179 40.2119 85.0643 40.2119C84.7107 40.2119 84.3884 40.2951 84.0972 40.4615C83.806 40.6278 83.5738 40.8705 83.4004 41.1894C83.2271 41.5083 83.1405 41.8827 83.1405 42.3125C83.1405 42.7492 83.2271 43.1305 83.4004 43.4564C83.5738 43.7753 83.806 44.0214 84.0972 44.1947C84.3884 44.3611 84.7107 44.4443 85.0643 44.4443C85.4179 44.4443 85.7402 44.3611 86.0314 44.1947C86.3295 44.0214 86.5652 43.7753 86.7385 43.4564C86.9118 43.1305 86.9985 42.7527 86.9985 42.3229ZM89.2008 42.3125C89.2008 41.7301 89.3187 41.2206 89.5544 40.7838C89.7901 40.3401 90.1125 39.997 90.5215 39.7543C90.9375 39.5117 91.3985 39.3904 91.9046 39.3904C92.4037 39.3904 92.837 39.4978 93.2044 39.7127C93.5719 39.9276 93.8457 40.198 94.026 40.5239V39.484H94.9827V45.1826H94.026V44.1219C93.8388 44.4547 93.558 44.732 93.1836 44.9538C92.8162 45.1688 92.3864 45.2762 91.8942 45.2762C91.3881 45.2762 90.9305 45.1514 90.5215 44.9018C90.1125 44.6523 89.7901 44.3022 89.5544 43.8515C89.3187 43.4009 89.2008 42.8879 89.2008 42.3125ZM94.026 42.3229C94.026 41.8931 93.9393 41.5187 93.766 41.1998C93.5927 40.8809 93.357 40.6382 93.0589 40.4719C92.7677 40.2985 92.4453 40.2119 92.0917 40.2119C91.7382 40.2119 91.4158 40.2951 91.1246 40.4615C90.8335 40.6278 90.6012 40.8705 90.4279 41.1894C90.2546 41.5083 90.1679 41.8827 90.1679 42.3125C90.1679 42.7492 90.2546 43.1305 90.4279 43.4564C90.6012 43.7753 90.8335 44.0214 91.1246 44.1947C91.4158 44.3611 91.7382 44.4443 92.0917 44.4443C92.4453 44.4443 92.7677 44.3611 93.0589 44.1947C93.357 44.0214 93.5927 43.7753 93.766 43.4564C93.9393 43.1305 94.026 42.7527 94.026 42.3229ZM97.7361 40.2639V43.6228C97.7361 43.9001 97.7951 44.0977 97.9129 44.2155C98.0308 44.3264 98.2353 44.3819 98.5265 44.3819H99.2232V45.1826H98.3705C97.8436 45.1826 97.4484 45.0613 97.185 44.8187C96.9215 44.576 96.7898 44.1774 96.7898 43.6228V40.2639H96.0515V39.484H96.7898V38.0489H97.7361V39.484H99.2232V40.2639H97.7361ZM105.569 42.1149C105.569 42.2952 105.559 42.4858 105.538 42.6869H100.983C101.018 43.2484 101.209 43.6886 101.555 44.0075C101.909 44.3195 102.335 44.4755 102.834 44.4755C103.243 44.4755 103.583 44.3819 103.853 44.1947C104.131 44.0006 104.325 43.7441 104.436 43.4252H105.455C105.302 43.9729 104.997 44.42 104.54 44.7667C104.082 45.1064 103.514 45.2762 102.834 45.2762C102.294 45.2762 101.808 45.1549 101.378 44.9122C100.956 44.6696 100.623 44.3264 100.38 43.8827C100.138 43.4321 100.016 42.9122 100.016 42.3229C100.016 41.7336 100.134 41.2171 100.37 40.7734C100.605 40.3297 100.935 39.99 101.358 39.7543C101.788 39.5117 102.28 39.3904 102.834 39.3904C103.375 39.3904 103.853 39.5082 104.269 39.7439C104.685 39.9796 105.004 40.3055 105.226 40.7214C105.455 41.1305 105.569 41.595 105.569 42.1149ZM104.592 41.9173C104.592 41.5568 104.512 41.2483 104.353 40.9918C104.193 40.7284 103.975 40.5308 103.697 40.3991C103.427 40.2604 103.126 40.1911 102.793 40.1911C102.314 40.1911 101.905 40.3436 101.566 40.6486C101.233 40.9537 101.042 41.3766 100.994 41.9173H104.592Z" fill="#263238"/>
</g>
<defs>
<clipPath id="clip0_811_10302">
<rect width="113" height="50.5662" fill="white"/>
</clipPath>
</defs>
</svg>
